<svg width="303" height="183" viewBox="0 0 303 183" fill="none" xmlns="http://www.w3.org/2000/svg">
<path d="M6.24 18.92H41.8V20.64H6.24V18.92ZM10.48 13.72H38V15.36H10.48V13.72ZM8.32 8.6H40V10.28H8.32V8.6ZM11.28 29.56H36.88V31.28H11.28V29.56ZM28.4 14.4C29.3333 16.4 30.5467 18.32 32.04 20.16C33.5333 21.9733 35.1867 23.6 37 25.04C38.84 26.4533 40.72 27.5867 42.64 28.44C42.5067 28.5467 42.3467 28.6933 42.16 28.88C41.9733 29.0667 41.8 29.2667 41.64 29.48C41.5067 29.6667 41.3867 29.8533 41.28 30.04C39.3333 29.08 37.44 27.8267 35.6 26.28C33.76 24.7333 32.0667 23 30.52 21.08C29 19.16 27.7333 17.1333 26.72 15L28.4 14.4ZM23 24.6H24.92V41H23V24.6ZM30.08 22.76L31.68 24.12C30.2667 24.4933 28.6533 24.84 26.84 25.16C25.0267 25.4533 23.1333 25.72 21.16 25.96C19.2133 26.2 17.32 26.4 15.48 26.56C15.4267 26.3733 15.3467 26.1333 15.24 25.84C15.16 25.5467 15.0533 25.2933 14.92 25.08C16.7333 24.92 18.5867 24.72 20.48 24.48C22.3733 24.24 24.16 23.9733 25.84 23.68C27.52 23.3867 28.9333 23.08 30.08 22.76ZM22.04 30.12L23.6 30.84C22.5333 32.1467 21.2133 33.4133 19.64 34.64C18.0933 35.84 16.4267 36.92 14.64 37.88C12.88 38.8133 11.1733 39.5867 9.52 40.2C9.41333 40.04 9.29333 39.8667 9.16 39.68C9.02667 39.4933 8.88 39.2933 8.72 39.08C8.56 38.8933 8.4 38.7467 8.24 38.64C9.89333 38.1067 11.5867 37.4133 13.32 36.56C15.08 35.68 16.72 34.68 18.24 33.56C19.7867 32.44 21.0533 31.2933 22.04 30.12ZM25.92 30.24C26.9333 31.4133 28.2133 32.5467 29.76 33.64C31.3067 34.7333 32.9467 35.72 34.68 36.6C36.44 37.48 38.1467 38.1733 39.8 38.68C39.6667 38.8133 39.52 38.96 39.36 39.12C39.2 39.3067 39.04 39.4933 38.88 39.68C38.7467 39.8667 38.6267 40.0533 38.52 40.24C36.8933 39.6533 35.1867 38.88 33.4 37.92C31.64 36.9333 29.9733 35.84 28.4 34.64C26.8267 33.44 25.52 32.2133 24.48 30.96L25.92 30.24ZM22.72 4.6L24.68 4.84C24.28 7.08 23.6133 9.38666 22.68 11.76C21.7733 14.1333 20.5867 16.4667 19.12 18.76C17.6533 21.0267 15.8933 23.16 13.84 25.16C11.7867 27.16 9.41333 28.9067 6.72 30.4C6.64 30.24 6.52 30.08 6.36 29.92C6.2 29.7333 6.04 29.56 5.88 29.4C5.72 29.2133 5.56 29.0667 5.4 28.96C8.04 27.5467 10.36 25.88 12.36 23.96C14.36 22.04 16.0667 20 17.48 17.84C18.8933 15.6533 20.0267 13.4267 20.88 11.16C21.76 8.89333 22.3733 6.70667 22.72 4.6ZM56.28 37.48H76.72V39.28H56.28V37.48ZM55.48 25.24H77.64V40.92H75.68V27.04H57.44V41.04H55.48V25.24ZM66.24 14C65.1733 15.76 63.76 17.5867 62 19.48C60.24 21.3467 58.28 23.1333 56.12 24.84C53.96 26.5467 51.7333 28.04 49.44 29.32C49.3067 29.1067 49.12 28.8667 48.88 28.6C48.6667 28.3333 48.4533 28.0933 48.24 27.88C50.5867 26.6267 52.84 25.1333 55 23.4C57.1867 21.6667 59.16 19.8267 60.92 17.88C62.7067 15.9067 64.1333 13.96 65.2 12.04H67.08C68.12 13.6133 69.32 15.1467 70.68 16.64C72.0667 18.1333 73.5467 19.56 75.12 20.92C76.6933 22.2533 78.2933 23.48 79.92 24.6C81.5733 25.6933 83.1867 26.6267 84.76 27.4C84.5467 27.6133 84.32 27.88 84.08 28.2C83.8667 28.52 83.68 28.8 83.52 29.04C81.4133 27.92 79.2667 26.5467 77.08 24.92C74.92 23.2933 72.8933 21.5467 71 19.68C69.1333 17.7867 67.5467 15.8933 66.24 14ZM70.64 6.64L72.08 5.56C73.4133 6.46667 74.7867 7.48 76.2 8.6C77.6133 9.72 78.9333 10.84 80.16 11.96C81.3867 13.0533 82.3733 14.0533 83.12 14.96L81.52 16.24C80.7733 15.3333 79.8 14.3067 78.6 13.16C77.4267 12.0133 76.1333 10.88 74.72 9.76C73.3333 8.61333 71.9733 7.57333 70.64 6.64ZM60.16 5.64L62.04 6.28C61.1067 7.58667 60.04 8.86667 58.84 10.12C57.6667 11.3733 56.44 12.5467 55.16 13.64C53.88 14.7333 52.6267 15.7067 51.4 16.56C51.2933 16.4533 51.1333 16.32 50.92 16.16C50.7333 15.9733 50.5333 15.8 50.32 15.64C50.1333 15.4533 49.9467 15.32 49.76 15.24C51.04 14.44 52.32 13.5333 53.6 12.52C54.88 11.48 56.08 10.3733 57.2 9.2C58.32 8 59.3067 6.81333 60.16 5.64ZM92.84 10.6H124.8V12.4H92.84V10.6ZM94.88 16.4H122.92V18.16H94.88V16.4ZM91.24 22.28H126.36V24.08H91.24V22.28ZM90.92 28.56H126.76V30.32H90.92V28.56ZM107.72 11.48H109.72V23.4H107.72V11.48ZM98.08 5.36L99.72 4.6C100.52 5.37333 101.267 6.25333 101.96 7.24C102.68 8.22666 103.213 9.10667 103.56 9.88L101.72 10.76C101.453 9.96 100.973 9.05333 100.28 8.04C99.6133 7.02666 98.88 6.13333 98.08 5.36ZM117.4 4.6L119.32 5.36C118.653 6.29333 117.933 7.24 117.16 8.2C116.413 9.16 115.72 9.98666 115.08 10.68L113.48 9.96C113.933 9.50666 114.4 8.96 114.88 8.32C115.36 7.68 115.827 7.02667 116.28 6.36C116.733 5.69333 117.107 5.10666 117.4 4.6ZM107.8 23.76H109.8C109.587 25.68 109.24 27.44 108.76 29.04C108.307 30.6133 107.667 32.04 106.84 33.32C106.04 34.6 104.973 35.7333 103.64 36.72C102.307 37.7067 100.653 38.5467 98.68 39.24C96.7067 39.9333 94.32 40.52 91.52 41C91.4667 40.8133 91.3867 40.6133 91.28 40.4C91.1733 40.2133 91.0533 40.0133 90.92 39.8C90.7867 39.5867 90.6533 39.4133 90.52 39.28C93.1867 38.8533 95.4667 38.3333 97.36 37.72C99.28 37.08 100.867 36.32 102.12 35.44C103.373 34.5333 104.373 33.5067 105.12 32.36C105.893 31.2133 106.48 29.9333 106.88 28.52C107.28 27.08 107.587 25.4933 107.8 23.76ZM110.56 29.04C111.653 32.1333 113.6 34.4933 116.4 36.12C119.2 37.72 122.8 38.76 127.2 39.24C127.04 39.3733 126.88 39.5467 126.72 39.76C126.56 39.9733 126.413 40.1867 126.28 40.4C126.173 40.6133 126.067 40.8133 125.96 41C122.973 40.5733 120.333 39.9067 118.04 39C115.773 38.0933 113.867 36.8533 112.32 35.28C110.773 33.7067 109.587 31.7733 108.76 29.48L110.56 29.04ZM152.44 16.28H164.72V18.04H152.44V16.28ZM149.6 22.92H166.24V24.68H149.6V22.92ZM155.48 23.6H157.36V41.04H155.48V23.6ZM158.36 6.52C157.693 7.82666 156.84 9.2 155.8 10.64C154.76 12.08 153.6 13.48 152.32 14.84C151.067 16.2 149.76 17.4133 148.4 18.48C148.267 18.24 148.08 17.9733 147.84 17.68C147.627 17.36 147.427 17.1067 147.24 16.92C148.6 15.9067 149.933 14.72 151.24 13.36C152.547 11.9733 153.733 10.5333 154.8 9.04C155.867 7.52 156.72 6.04 157.36 4.6H159.24C160.093 6.09333 161.107 7.57333 162.28 9.04C163.453 10.5067 164.68 11.8933 165.96 13.2C167.267 14.48 168.547 15.5867 169.8 16.52C169.613 16.7333 169.4 17 169.16 17.32C168.947 17.6133 168.76 17.8933 168.6 18.16C167.347 17.1467 166.08 15.9867 164.8 14.68C163.52 13.3733 162.32 12.0133 161.2 10.6C160.08 9.18666 159.133 7.82666 158.36 6.52ZM165.52 22.92H167.4V33.88C167.4 34.4133 167.32 34.84 167.16 35.16C167 35.4533 166.693 35.6933 166.24 35.88C165.813 36.04 165.173 36.1333 164.32 36.16C163.467 36.1867 162.333 36.2 160.92 36.2C160.893 35.96 160.813 35.68 160.68 35.36C160.547 35.0133 160.413 34.7067 160.28 34.44C161.4 34.4667 162.373 34.48 163.2 34.48C164.053 34.48 164.6 34.4667 164.84 34.44C165.133 34.44 165.32 34.4 165.4 34.32C165.48 34.24 165.52 34.0933 165.52 33.88V22.92ZM135.84 14.48H147.8V16.24H135.84V14.48ZM133.64 21.28H148.96V23.04H133.64V21.28ZM134.8 26.12L136.32 25.76C136.8 26.9867 137.2 28.32 137.52 29.76C137.867 31.2 138.08 32.44 138.16 33.48L136.56 33.88C136.507 32.8133 136.32 31.5733 136 30.16C135.68 28.72 135.28 27.3733 134.8 26.12ZM133.2 37.76C134.507 37.4933 136.027 37.1867 137.76 36.84C139.52 36.4933 141.387 36.12 143.36 35.72C145.36 35.2933 147.373 34.8667 149.4 34.44L149.52 36.16C147.68 36.56 145.8 36.96 143.88 37.36C141.987 37.76 140.173 38.1467 138.44 38.52C136.707 38.8933 135.147 39.24 133.76 39.56L133.2 37.76ZM146.48 25.24L148.24 25.84C147.84 27.12 147.413 28.4667 146.96 29.88C146.507 31.2933 146.067 32.4933 145.64 33.48L144.24 32.96C144.507 32.2667 144.787 31.4667 145.08 30.56C145.373 29.6267 145.64 28.7067 145.88 27.8C146.147 26.8667 146.347 26.0133 146.48 25.24ZM140.76 15.32H142.56V37.04L140.76 37.28V15.32ZM140.44 4.64H141.44V5.16H142.08V5.68C141.52 6.69333 140.84 7.82666 140.04 9.08C139.267 10.3333 138.347 11.6 137.28 12.88C136.213 14.16 135 15.36 133.64 16.48C133.533 16.3467 133.4 16.2133 133.24 16.08C133.08 15.92 132.92 15.7733 132.76 15.64C132.6 15.5067 132.453 15.3867 132.32 15.28C133.627 14.24 134.787 13.1067 135.8 11.88C136.84 10.6267 137.747 9.38666 138.52 8.16C139.32 6.90666 139.96 5.73333 140.44 4.64ZM140.84 4.64H142.4C143.253 5.38666 144.12 6.21333 145 7.12C145.907 8.02667 146.747 8.92 147.52 9.8C148.293 10.68 148.92 11.4667 149.4 12.16L148 13.56C147.52 12.8667 146.907 12.08 146.16 11.2C145.413 10.2933 144.613 9.38666 143.76 8.48C142.933 7.54666 142.093 6.72 141.24 6H140.84V4.64ZM189.161 26.28C190.307 25.9867 191.601 25.6267 193.041 25.2C194.507 24.7733 196.054 24.32 197.681 23.84C199.334 23.3333 200.974 22.8267 202.601 22.32L202.881 24.04C200.587 24.7867 198.294 25.5333 196.001 26.28C193.707 27 191.654 27.64 189.841 28.2L189.161 26.28ZM189.641 12.96H202.881V14.84H189.641V12.96ZM195.761 4.64H197.641V38.08C197.641 38.7467 197.534 39.24 197.321 39.56C197.134 39.9067 196.814 40.16 196.361 40.32C195.934 40.48 195.321 40.5733 194.521 40.6C193.721 40.6533 192.641 40.68 191.281 40.68C191.254 40.4133 191.161 40.1067 191.001 39.76C190.867 39.4133 190.747 39.1067 190.641 38.84C191.654 38.8667 192.561 38.88 193.361 38.88C194.187 38.88 194.721 38.88 194.961 38.88C195.254 38.8533 195.454 38.7867 195.561 38.68C195.694 38.5733 195.761 38.3867 195.761 38.12V4.64ZM201.601 37.36H225.481V39.2H201.601V37.36ZM206.641 20.4V29.64H220.361V20.4H206.641ZM206.641 9.52V18.56H220.361V9.52H206.641ZM204.721 7.64H222.321V31.44H204.721V7.64ZM248.961 4.6H251.001V20.04H248.961V4.6ZM235.241 7.2L236.961 6.48C237.734 7.41333 238.481 8.42667 239.201 9.52C239.947 10.6133 240.601 11.6933 241.161 12.76C241.747 13.8267 242.201 14.7867 242.521 15.64L240.721 16.52C240.374 15.64 239.907 14.6667 239.321 13.6C238.761 12.5067 238.121 11.4 237.401 10.28C236.707 9.16 235.987 8.13333 235.241 7.2ZM262.841 6.16L264.801 6.96C264.241 8.05333 263.614 9.2 262.921 10.4C262.254 11.5733 261.574 12.7333 260.881 13.88C260.187 15 259.521 15.9867 258.881 16.84L257.281 16.12C257.894 15.2133 258.547 14.1867 259.241 13.04C259.934 11.8667 260.601 10.68 261.241 9.48C261.881 8.25333 262.414 7.14666 262.841 6.16ZM235.561 18.92H264.361V41.04H262.361V20.88H235.561V18.92ZM236.881 27.92H263.201V29.8H236.881V27.92ZM234.841 37.28H263.321V39.2H234.841V37.28Z" fill="black" fill-opacity="0.6"/>
<path d="M41.14 98.94L48.62 98.06C48.9867 98.06 49.4267 98.0233 49.94 97.95C50.4533 97.8033 51.0767 97.6933 51.81 97.62C52.6167 97.5467 53.1667 97.4733 53.46 97.4C53.9 97.3267 54.0467 94.65 53.9 89.37C53.7533 84.0167 53.9 80.8633 54.34 79.91C55 78.6633 55.88 78.04 56.98 78.04L58.96 78.26C60.8667 78.26 61.82 80.8267 61.82 85.96V92.12C61.8933 94.1733 61.9667 95.3467 62.04 95.64C62.1867 95.86 62.6267 95.97 63.36 95.97L67.54 95.53L80.74 93.77L83.49 93.33L97.68 91.68C98.78 91.68 99.8067 92.0833 100.76 92.89C102.227 94.5033 102.08 96.1167 100.32 97.73C99.2933 98.61 98.2667 99.05 97.24 99.05L83.38 100.7L63.47 103.34C62.9567 103.34 62.59 103.45 62.37 103.67C62.2233 103.817 62.1133 105.027 62.04 107.3C61.9667 109.573 62.0033 111.187 62.15 112.14C62.2967 113.02 62.37 113.717 62.37 114.23C62.37 114.743 62.6633 115.66 63.25 116.98C63.8367 118.3 65.23 119.253 67.43 119.84C69.7033 120.353 72.8567 120.537 76.89 120.39C80.9233 120.17 85.1767 120.06 89.65 120.06C94.1233 120.06 96.6533 120.133 97.24 120.28C98.1933 120.573 98.5967 121.453 98.45 122.92L97.9 125.56C97.7533 126.073 97.3133 126.44 96.58 126.66C95.92 126.807 93.61 126.917 89.65 126.99C85.69 126.99 83.05 127.063 81.73 127.21C80.41 127.283 77.44 127.32 72.82 127.32C68.2 127.247 65.0833 126.953 63.47 126.44C59.2167 125.12 56.65 123.14 55.77 120.5C55.6967 120.133 55.4767 119.62 55.11 118.96C54.8167 118.227 54.6333 116.98 54.56 115.22C54.4867 113.46 54.4133 111.773 54.34 110.16C54.2667 108.547 54.2667 107.337 54.34 106.53C54.4867 105.723 54.4133 105.173 54.12 104.88C53.9 104.587 53.35 104.55 52.47 104.77C51.6633 104.917 50.8933 105.027 50.16 105.1C49.4267 105.1 48.95 105.137 48.73 105.21C48.51 105.283 47.96 105.357 47.08 105.43C46.2 105.503 45.65 105.577 45.43 105.65C45.2833 105.723 44.8067 105.797 44 105.87C43.2667 105.943 42.7533 106.053 42.46 106.2C42.24 106.273 41.58 106.31 40.48 106.31H38.83L37.73 105.76C36.63 105.027 36.08 104.183 36.08 103.23C36.08 100.37 37.7667 98.94 41.14 98.94ZM26.73 92.45C26.4367 92.1567 25.9967 91.8633 25.41 91.57C24.8233 91.2767 24.2733 90.91 23.76 90.47C23.2467 90.03 22.1833 89.37 20.57 88.49C19.03 87.5367 18.0767 86.7667 17.71 86.18C17.3433 85.52 17.16 84.4933 17.16 83.1C17.16 81.7067 17.6367 80.8633 18.59 80.57C19.6167 80.2767 20.68 80.4233 21.78 81.01C22.88 81.5233 23.54 81.89 23.76 82.11C23.98 82.2567 24.42 82.55 25.08 82.99C25.74 83.43 26.2533 83.7967 26.62 84.09C27.06 84.3833 27.61 84.7133 28.27 85.08C28.93 85.4467 29.6267 85.85 30.36 86.29C31.0933 86.73 31.4967 86.95 31.57 86.95C32.23 86.95 33.1467 87.39 34.32 88.27C35.5667 89.15 36.2633 89.8467 36.41 90.36C36.5567 90.8 36.7033 91.1667 36.85 91.46C37.29 92.1933 37.18 92.9267 36.52 93.66C34.2467 96.3733 30.9833 95.97 26.73 92.45ZM8.58 99.27C8.58 97.4367 9.57 96.2633 11.55 95.75C12.0633 95.53 12.8333 95.7867 13.86 96.52C14.96 97.2533 15.5833 97.62 15.73 97.62C15.8767 97.62 16.28 97.84 16.94 98.28C17.6733 98.72 18.5533 99.2333 19.58 99.82C20.68 100.333 21.67 100.883 22.55 101.47C23.5033 102.057 24.1267 102.387 24.42 102.46C24.7133 102.46 25.0067 102.57 25.3 102.79C25.6667 102.937 26.0333 103.12 26.4 103.34C26.84 103.56 27.17 103.89 27.39 104.33C27.61 104.697 27.83 105.027 28.05 105.32C28.27 105.54 28.38 105.76 28.38 105.98C28.38 106.2 28.4167 106.53 28.49 106.97C28.6367 107.337 28.38 107.74 27.72 108.18C27.1333 108.547 26.6567 108.913 26.29 109.28C25.9967 109.647 25.0067 109.683 23.32 109.39C20.3133 108.877 17.8933 107.703 16.06 105.87C15.9133 105.723 15.29 105.393 14.19 104.88C13.09 104.293 12.32 103.853 11.88 103.56C11.44 103.193 11 102.9 10.56 102.68C10.12 102.46 9.46 101.69 8.58 100.37V99.27ZM33 109.94C33.3667 109.573 33.7333 109.353 34.1 109.28C34.4667 109.133 34.7967 109.023 35.09 108.95C35.3833 108.803 35.6033 108.767 35.75 108.84C35.8967 108.84 36.2267 108.84 36.74 108.84C37.3267 108.84 37.6933 108.95 37.84 109.17C38.06 109.317 38.2433 109.537 38.39 109.83C38.5367 110.123 38.6833 110.38 38.83 110.6C39.05 110.82 39.16 111.26 39.16 111.92C39.16 113.533 37.7667 115.33 34.98 117.31C34.6133 117.603 33.99 118.153 33.11 118.96C32.3033 119.767 31.68 120.353 31.24 120.72C30.8 121.013 30.03 121.673 28.93 122.7C27.9033 123.727 27.0233 124.497 26.29 125.01C25.5567 125.45 24.9333 125.927 24.42 126.44C23.9067 126.88 23.5767 127.1 23.43 127.1C23.3567 127.1 22.6233 127.723 21.23 128.97C19.8367 130.143 19.03 130.803 18.81 130.95C18.6633 131.097 18.26 131.427 17.6 131.94C16.94 132.6 16.4633 132.967 16.17 133.04C15.8767 133.04 15.5833 133.15 15.29 133.37C15.07 133.59 14.8133 133.773 14.52 133.92L12.98 134.36C11.9533 134.727 11.2933 134.69 11 134.25C10.7067 133.81 10.45 133.627 10.23 133.7C10.01 133.7 9.75333 133.627 9.46 133.48C9.16667 133.26 9.02 133.04 9.02 132.82C9.02 132.527 8.91 132.233 8.69 131.94C8.54333 131.573 8.54333 131.243 8.69 130.95C8.83667 130.583 8.91 130.29 8.91 130.07C8.91 129.85 9.05667 129.557 9.35 129.19C9.71667 128.823 9.97333 128.53 10.12 128.31C10.2667 128.09 10.67 127.76 11.33 127.32C11.99 126.88 12.54 126.513 12.98 126.22L14.08 125.34C14.8867 124.9 16.3167 123.8 18.37 122.04C20.4967 120.28 21.67 119.327 21.89 119.18C22.11 119.033 22.66 118.557 23.54 117.75C24.42 116.943 25.0433 116.393 25.41 116.1C26.1433 115.513 26.6933 115.11 27.06 114.89C27.4267 114.597 28.1233 114.01 29.15 113.13C30.1767 112.177 30.9833 111.517 31.57 111.15C32.1567 110.71 32.6333 110.307 33 109.94ZM49.72 140.08C50.0867 140.08 50.49 139.86 50.93 139.42V136.01C50.93 131.83 51.26 129.593 51.92 129.3C52.6533 128.933 53.1667 128.713 53.46 128.64C55.88 128.127 57.53 128.97 58.41 131.17C58.63 132.05 58.7033 133.627 58.63 135.9C58.63 138.173 58.7033 139.383 58.85 139.53L58.96 139.75H65.01C69.1167 139.677 72.0867 139.603 73.92 139.53C75.7533 139.457 80.52 139.42 88.22 139.42C95.9933 139.347 100.247 139.42 100.98 139.64C101.86 139.787 102.74 140.483 103.62 141.73L103.51 142.72C103.51 144.26 102.593 145.36 100.76 146.02C100.32 146.167 97.5333 146.277 92.4 146.35C87.2667 146.35 83.7833 146.423 81.95 146.57C80.1167 146.643 77.33 146.68 73.59 146.68L60.28 146.9C59.3267 146.973 58.8133 147.12 58.74 147.34C58.6667 147.56 58.63 149.87 58.63 154.27C58.63 168.863 58.4833 176.637 58.19 177.59C57.8967 178.543 57.3467 179.203 56.54 179.57C55.7333 180.01 55.0733 180.23 54.56 180.23C52.8733 180.23 51.6633 179.35 50.93 177.59C50.7833 177.077 50.7833 170.147 50.93 156.8L51.04 147.56L50.82 147.34L50.6 147.01L45.76 146.9C42.5333 146.827 40.37 146.827 39.27 146.9C38.2433 146.973 36.1533 147.047 33 147.12C29.8467 147.193 28.16 147.267 27.94 147.34C27.7933 147.413 24.5667 147.487 18.26 147.56H8.8C6.82 146.973 5.83 145.763 5.83 143.93C5.83 142.39 6.49 141.4 7.81 140.96L8.69 140.63H16.06L41.25 139.86L49.72 140.08ZM97.24 173.3L95.7 172.53C93.8667 171.943 91.7033 170.917 89.21 169.45C86.7167 167.91 85.2133 167.03 84.7 166.81C84.26 166.517 83.7467 166.223 83.16 165.93C82.6467 165.563 81.5833 164.94 79.97 164.06C78.3567 163.107 76.5967 162.043 74.69 160.87C72.7833 159.623 71.0233 158.633 69.41 157.9C67.87 157.167 66.8433 156.36 66.33 155.48C65.89 154.527 65.67 153.793 65.67 153.28C65.67 151.887 66.44 150.823 67.98 150.09C69.08 149.43 70.9867 150.053 73.7 151.96C74.2133 152.253 74.8733 152.62 75.68 153.06C76.4867 153.427 77.5867 154.05 78.98 154.93C80.4467 155.81 81.4 156.36 81.84 156.58C82.3533 156.8 83.1967 157.313 84.37 158.12C85.6167 158.853 87.0467 159.623 88.66 160.43C90.3467 161.237 91.7767 161.97 92.95 162.63C94.1233 163.29 95.8833 164.207 98.23 165.38C101.603 166.993 103.437 168.13 103.73 168.79C104.023 169.45 104.06 170.073 103.84 170.66C103.693 171.32 103.62 171.723 103.62 171.87C103.62 172.017 103.583 172.2 103.51 172.42C103.363 172.713 102.887 173.08 102.08 173.52C100.54 174.253 99.3667 174.4 98.56 173.96C97.7533 173.52 97.3133 173.3 97.24 173.3ZM34.32 154.82C34.3933 154.82 35.4567 154.087 37.51 152.62C39.6367 151.153 41.2867 150.42 42.46 150.42C43.6333 150.42 44.2933 150.493 44.44 150.64C44.66 150.713 44.8067 150.86 44.88 151.08C45.0267 151.3 45.2467 151.593 45.54 151.96C45.9067 152.327 45.98 152.95 45.76 153.83C45.54 154.71 45.21 155.37 44.77 155.81C44.33 156.25 43.6333 156.763 42.68 157.35C41.7267 157.937 40.8833 158.523 40.15 159.11C39.4167 159.697 38.5733 160.247 37.62 160.76C36.6667 161.273 36.1167 161.603 35.97 161.75C35.8967 161.823 35.6767 161.97 35.31 162.19C34.9433 162.337 34.3933 162.63 33.66 163.07C33 163.437 31.1667 164.39 28.16 165.93C25.2267 167.397 23.6867 168.13 23.54 168.13L21.56 169.01C20.3133 169.597 19.5067 169.927 19.14 170C18.8467 170.147 18.1133 170.44 16.94 170.88C15.84 171.393 15.2167 171.65 15.07 171.65C14.9967 171.65 14.63 171.76 13.97 171.98C13.31 172.273 12.7967 172.42 12.43 172.42C12.1367 172.493 11.88 172.567 11.66 172.64C11.2933 172.86 10.1567 172.97 8.25 172.97C7.59 172.823 7.00333 172.42 6.49 171.76C6.05 171.173 5.83 170.66 5.83 170.22C5.83 169.853 5.79333 169.56 5.72 169.34C5.57333 168.753 5.83 167.983 6.49 167.03C7.00333 166.517 7.48 166.223 7.92 166.15C8.43333 166.003 8.8 165.893 9.02 165.82C9.31333 165.673 9.75333 165.527 10.34 165.38C11 165.233 11.55 165.087 11.99 164.94C12.43 164.793 12.7967 164.683 13.09 164.61C13.3833 164.537 13.7867 164.427 14.3 164.28L15.51 163.84C15.73 163.767 16.0967 163.62 16.61 163.4C17.1967 163.107 17.5267 162.96 17.6 162.96C17.6733 162.96 17.93 162.85 18.37 162.63C18.8833 162.41 19.6533 162.08 20.68 161.64C24.1267 160.247 28.05 158.303 32.45 155.81C33.6233 155.15 34.2467 154.82 34.32 154.82ZM165.55 84.97L165.11 82.44C165.11 81.34 165.403 80.4233 165.99 79.69C166.577 78.8833 167.347 78.4067 168.3 78.26C171.013 77.9667 172.92 80.02 174.02 84.42C174.973 86.5467 175.45 87.72 175.45 87.94C175.45 88.0867 175.633 88.5633 176 89.37C176.44 90.1767 176.697 90.8733 176.77 91.46C176.917 91.9733 177.173 92.34 177.54 92.56C177.98 92.7067 179.007 92.8167 180.62 92.89C182.233 92.89 183.407 92.8533 184.14 92.78C184.947 92.7067 187.66 92.67 192.28 92.67C196.9 92.5967 199.357 92.5967 199.65 92.67C200.017 92.7433 200.787 92.8167 201.96 92.89C203.133 92.9633 203.903 93.0733 204.27 93.22C204.71 93.2933 205.04 93.33 205.26 93.33C205.553 93.33 205.883 93.4033 206.25 93.55C206.617 93.6967 207.167 93.88 207.9 94.1C210.467 94.8333 212.153 95.8233 212.96 97.07C213.84 98.3167 214.537 99.5267 215.05 100.7C215.637 101.873 216.003 103.633 216.15 105.98C216.37 108.327 216.517 109.867 216.59 110.6C216.663 111.26 216.7 112.25 216.7 113.57L216.81 115.44C216.223 116.613 215.747 117.273 215.38 117.42C215.307 117.493 214.683 117.933 213.51 118.74H212.3C211.2 118.74 210.503 118.52 210.21 118.08C209.917 117.64 209.66 117.273 209.44 116.98C208.853 116.32 208.56 114.707 208.56 112.14L208.12 105.76C208.12 105.467 208.047 105.173 207.9 104.88C207.827 104.587 207.753 104.22 207.68 103.78C207.167 101.947 205.883 100.92 203.83 100.7C203.17 100.627 202.62 100.517 202.18 100.37C201.813 100.223 198.77 100.15 193.05 100.15L153.12 100.04C144.76 99.9667 140.14 100.077 139.26 100.37C138.453 100.59 137.867 100.737 137.5 100.81C135.813 101.177 134.603 102.79 133.87 105.65L133.76 110.27C133.76 112.91 133.723 114.45 133.65 114.89C133.577 115.33 133.32 115.917 132.88 116.65C132 117.97 131.01 118.447 129.91 118.08C128.883 117.713 128.223 117.53 127.93 117.53C127.71 117.53 127.343 117.31 126.83 116.87C126.317 116.357 126.023 115.513 125.95 114.34C125.29 104 126.83 97.8033 130.57 95.75C132.623 94.5033 134.163 93.8067 135.19 93.66C136.29 93.44 137.097 93.2933 137.61 93.22C138.123 93.0733 138.857 92.9633 139.81 92.89C140.763 92.8167 141.607 92.7433 142.34 92.67C143.147 92.5967 145.897 92.5967 150.59 92.67C155.283 92.67 158.363 92.67 159.83 92.67C161.37 92.67 163.057 92.7067 164.89 92.78C166.723 92.8533 167.713 92.8533 167.86 92.78C168.08 92.7067 168.043 92.3033 167.75 91.57C167.457 90.7633 167.273 90.2133 167.2 89.92C167.2 89.6267 167.053 89.2233 166.76 88.71C166.54 88.1233 166.43 87.7567 166.43 87.61L165.55 84.97ZM142.12 112.69L147.29 112.47C153.67 112.47 159.097 112.47 163.57 112.47C168.043 112.47 170.5 112.47 170.94 112.47C171.38 112.397 175.927 112.323 184.58 112.25C195.067 112.177 200.75 112.397 201.63 112.91C202.51 113.35 202.95 114.12 202.95 115.22C202.95 116.247 202.767 117.053 202.4 117.64C201.813 118.593 201.007 119.18 199.98 119.4C199.027 119.547 194.883 119.62 187.55 119.62H176.66C176.293 119.84 176.11 120.757 176.11 122.37V126.44C176.11 132.16 176.257 135.093 176.55 135.24C176.917 135.387 182.857 135.46 194.37 135.46C205.883 135.46 211.75 135.533 211.97 135.68C212.19 135.753 213.07 135.827 214.61 135.9L216.92 136.01C218.313 136.597 219.083 137.073 219.23 137.44C219.45 137.733 219.67 137.99 219.89 138.21C220.11 138.357 220.22 138.54 220.22 138.76C220.22 138.98 220.367 139.457 220.66 140.19C219.927 142.317 217.653 143.343 213.84 143.27C212.813 143.197 212.153 143.123 211.86 143.05C211.64 142.977 205.7 142.94 194.04 142.94C182.453 142.867 176.587 142.903 176.44 143.05C176.367 143.197 176.33 146.57 176.33 153.17C176.33 159.77 176.257 163.62 176.11 164.72C175.963 165.747 175.853 166.407 175.78 166.7C175.707 166.993 175.633 167.36 175.56 167.8C174.387 172.347 171.6 175.207 167.2 176.38C166.32 176.673 165.733 176.82 165.44 176.82C165.147 176.82 164.78 176.893 164.34 177.04C160.307 177.993 157.447 178.03 155.76 177.15C154.073 176.343 153.23 175.83 153.23 175.61C153.23 175.39 153.047 174.913 152.68 174.18C152.9 173.667 152.973 173.263 152.9 172.97C152.827 172.75 152.863 172.53 153.01 172.31C153.157 172.09 153.34 171.76 153.56 171.32C153.78 170.953 154.147 170.55 154.66 170.11C155.173 169.67 155.577 169.45 155.87 169.45C156.163 169.45 156.53 169.413 156.97 169.34C157.483 169.193 158.327 169.083 159.5 169.01C160.673 168.937 161.443 168.863 161.81 168.79C162.25 168.643 163.13 168.387 164.45 168.02C165.843 167.653 166.723 167.067 167.09 166.26C167.53 165.38 167.75 164.867 167.75 164.72C167.75 164.573 167.823 164.207 167.97 163.62C168.19 162.96 168.3 159.55 168.3 153.39V143.71C168.3 143.417 168.227 143.197 168.08 143.05C168.007 142.903 163.24 142.83 153.78 142.83L128.92 142.61C126.647 142.61 125.253 142.5 124.74 142.28C124.3 141.987 123.787 141.4 123.2 140.52C122.687 139.567 122.723 138.613 123.31 137.66C123.897 136.633 124.593 135.937 125.4 135.57C126.207 135.203 127.857 135.02 130.35 135.02L155.1 135.35H167.64C168.007 134.983 168.153 132.417 168.08 127.65C168.08 122.883 168.007 120.353 167.86 120.06C167.713 119.767 167.273 119.657 166.54 119.73C165.22 119.877 160.013 119.95 150.92 119.95L143 120.06C141.387 119.62 140.323 118.85 139.81 117.75C139.003 116.21 139.04 115 139.92 114.12C140.8 113.167 141.533 112.69 142.12 112.69ZM254.43 166.37C254.43 168.79 252.707 170 249.26 170C245.887 170 244.2 168.79 244.2 166.37V93.88C244.2 90.8 245.74 89.26 248.82 89.26H267.3C287.393 89.26 297.44 97.18 297.44 113.02C297.44 121.307 294.763 127.54 289.41 131.72C284.13 135.9 276.907 137.99 267.74 137.99H254.43V166.37ZM266.42 129.74C280.353 129.74 287.32 124.203 287.32 113.13C287.32 107.41 285.597 103.413 282.15 101.14C278.703 98.7933 273.313 97.62 265.98 97.62H256.52C255.127 97.62 254.43 98.3167 254.43 99.71V129.74H266.42Z" fill="#222832"/>
</svg>
