<svg width="510" height="271" viewBox="0 0 510 271" fill="none" xmlns="http://www.w3.org/2000/svg">
<path d="M39.84 86.24H26.72L12.96 34.88V108H0.32V7.83999H16.16L33.28 69.92L50.4 7.83999H66.24V108H53.6V34.72L39.84 86.24ZM103.94 108H89.54V29.92H103.94V108ZM89.22 15.04V0.799997H104.26V15.04H89.22ZM152.058 92.32V79.36C152.058 77.44 151.738 76.2133 151.098 75.68C150.564 75.04 149.284 74.72 147.258 74.72H139.098C133.871 74.72 130.084 73.5467 127.738 71.2C125.391 68.7467 124.217 65.2267 124.217 60.64V44.16C124.217 39.4667 125.391 35.9467 127.738 33.6C130.191 31.1467 133.978 29.92 139.098 29.92H150.778C156.004 29.92 159.791 31.1467 162.138 33.6C164.591 35.9467 165.818 39.4667 165.818 44.16V51.68H151.738V45.6C151.738 43.68 151.418 42.4533 150.778 41.92C150.244 41.28 148.964 40.96 146.938 40.96H143.098C141.178 40.96 139.898 41.28 139.258 41.92C138.618 42.4533 138.298 43.68 138.298 45.6V59.04C138.298 60.96 138.618 62.24 139.258 62.88C139.898 63.4133 141.178 63.68 143.098 63.68H151.418C156.538 63.68 160.271 64.9067 162.618 67.36C164.964 69.7067 166.138 73.2267 166.138 77.92V93.92C166.138 98.5067 164.911 102.027 162.458 104.48C160.111 106.827 156.378 108 151.258 108H139.418C134.298 108 130.511 106.827 128.058 104.48C125.711 102.027 124.538 98.5067 124.538 93.92V86.24H138.778V92.32C138.778 94.1333 139.098 95.36 139.738 96C140.378 96.64 141.604 96.96 143.418 96.96H147.258C149.284 96.96 150.564 96.64 151.098 96C151.738 95.36 152.058 94.1333 152.058 92.32ZM186.318 29.92H200.718V91.68C200.718 93.4933 201.038 94.72 201.678 95.36C202.318 96 203.598 96.32 205.518 96.32H211.118C212.931 96.32 214.264 95.9467 215.118 95.2C215.971 94.3467 216.398 92.8533 216.398 90.72V85.6H217.038V97.12C217.038 100.96 216.078 103.733 214.158 105.44C212.238 107.147 209.678 108 206.478 108H200.718C195.811 108 192.184 106.827 189.838 104.48C187.491 102.027 186.318 98.5067 186.318 93.92V29.92ZM216.398 29.92H230.798V108H216.398V98.24V97.28V29.92ZM290.035 29.92V41.44H249.875V29.92H290.035ZM275.155 41.44H290.035L262.835 96.48H248.115L275.155 41.44ZM290.355 96.48V108H248.115V96.48H290.355ZM307.474 29.92H321.874V91.68C321.874 93.4933 322.194 94.72 322.834 95.36C323.474 96 324.754 96.32 326.674 96.32H332.274C334.087 96.32 335.42 95.9467 336.274 95.2C337.127 94.3467 337.554 92.8533 337.554 90.72V85.6H338.194V97.12C338.194 100.96 337.234 103.733 335.314 105.44C333.394 107.147 330.834 108 327.634 108H321.874C316.967 108 313.34 106.827 310.994 104.48C308.647 102.027 307.474 98.5067 307.474 93.92V29.92ZM337.554 29.92H351.954V108H337.554V98.24V97.28V29.92ZM196.105 192.32V204H166.185V192.32H196.105ZM155.945 147.84H170.505V248H155.945V147.84ZM191.625 147.84H206.185V248H191.625V147.84ZM242.824 211.68H228.424V184.16C228.424 179.467 229.597 175.947 231.944 173.6C234.29 171.147 237.917 169.92 242.824 169.92H248.584C251.784 169.92 254.344 170.773 256.264 172.48C258.184 174.187 259.144 176.96 259.144 180.8V191.52H258.504V187.2C258.504 185.173 258.077 183.733 257.224 182.88C256.37 182.027 255.037 181.6 253.224 181.6H247.624C245.704 181.6 244.424 181.92 243.784 182.56C243.144 183.093 242.824 184.32 242.824 186.24V211.68ZM272.904 248H258.504V181.12V180V169.92H272.904V248ZM228.424 206.24H242.824V231.68C242.824 233.493 243.144 234.72 243.784 235.36C244.424 236 245.704 236.32 247.624 236.32H253.224C255.037 236.32 256.37 235.947 257.224 235.2C258.077 234.347 258.504 232.853 258.504 230.72V226.56H259.144V237.12C259.144 240.96 258.184 243.733 256.264 245.44C254.344 247.147 251.784 248 248.584 248H242.824C237.917 248 234.29 246.827 231.944 244.48C229.597 242.027 228.424 238.507 228.424 233.92V206.24ZM310.72 156.64V231.04C310.72 232.853 311.04 234.08 311.68 234.72C312.32 235.36 313.547 235.68 315.36 235.68H321.44V248H311.2C305.973 248 302.133 246.827 299.68 244.48C297.333 242.027 296.16 238.507 296.16 233.92V156.64H310.72ZM321.44 169.92V181.6H288.8V169.92H321.44ZM351.48 211.68H337.08V184.16C337.08 179.467 338.253 175.947 340.6 173.6C342.947 171.147 346.573 169.92 351.48 169.92H357.24C360.44 169.92 363 170.773 364.92 172.48C366.84 174.187 367.8 176.96 367.8 180.8V191.52H367.16V187.2C367.16 185.173 366.733 183.733 365.88 182.88C365.027 182.027 363.693 181.6 361.88 181.6H356.28C354.36 181.6 353.08 181.92 352.44 182.56C351.8 183.093 351.48 184.32 351.48 186.24V211.68ZM381.56 248H367.16V181.12V180V169.92H381.56V248ZM337.08 206.24H351.48V231.68C351.48 233.493 351.8 234.72 352.44 235.36C353.08 236 354.36 236.32 356.28 236.32H361.88C363.693 236.32 365.027 235.947 365.88 235.2C366.733 234.347 367.16 232.853 367.16 230.72V226.56H367.8V237.12C367.8 240.96 366.84 243.733 364.92 245.44C363 247.147 360.44 248 357.24 248H351.48C346.573 248 342.947 246.827 340.6 244.48C338.253 242.027 337.08 238.507 337.08 233.92V206.24ZM397.936 169.92H412.656L424.496 235.36L435.536 169.92H450.096L433.616 255.52C432.55 260.213 430.523 263.787 427.536 266.24C424.656 268.8 420.55 270.08 415.216 270.08H405.616V258.56H412.176C414.416 258.56 416.23 258.187 417.616 257.44C419.11 256.8 420.07 255.413 420.496 253.28L422.096 246.72H414.256L397.936 169.92ZM479.824 211.68H465.424V184.16C465.424 179.467 466.597 175.947 468.944 173.6C471.29 171.147 474.917 169.92 479.824 169.92H485.584C488.784 169.92 491.344 170.773 493.264 172.48C495.184 174.187 496.144 176.96 496.144 180.8V191.52H495.504V187.2C495.504 185.173 495.077 183.733 494.224 182.88C493.37 182.027 492.037 181.6 490.224 181.6H484.624C482.704 181.6 481.424 181.92 480.784 182.56C480.144 183.093 479.824 184.32 479.824 186.24V211.68ZM509.904 248H495.504V181.12V180V169.92H509.904V248ZM465.424 206.24H479.824V231.68C479.824 233.493 480.144 234.72 480.784 235.36C481.424 236 482.704 236.32 484.624 236.32H490.224C492.037 236.32 493.37 235.947 494.224 235.2C495.077 234.347 495.504 232.853 495.504 230.72V226.56H496.144V237.12C496.144 240.96 495.184 243.733 493.264 245.44C491.344 247.147 488.784 248 485.584 248H479.824C474.917 248 471.29 246.827 468.944 244.48C466.597 242.027 465.424 238.507 465.424 233.92V206.24Z" fill="black" fill-opacity="0.03"/>
</svg>
