<svg width="76" height="16" viewBox="0 0 76 16" fill="none" xmlns="http://www.w3.org/2000/svg">
<g clip-path="url(#clip0_27_74)">
<path d="M37.9531 2.92313C38.5129 4.01186 39.2417 5.01131 40.1172 5.88309V5.88406C40.9876 6.75871 41.9864 7.48604 43.0732 8.04617C41.9876 8.60556 40.9907 9.33292 40.1211 10.2063C39.244 11.0787 38.5137 12.0792 37.9531 13.1692C37.3922 12.0816 36.6654 11.0812 35.792 10.2083C34.9175 9.33432 33.9157 8.60672 32.8262 8.04617C33.9153 7.48566 34.9167 6.75873 35.791 5.88504C36.6648 5.01181 37.392 4.01121 37.9531 2.92313Z" stroke="#7A99CF" stroke-width="2"/>
</g>
<g clip-path="url(#clip1_27_74)">
<path fill-rule="evenodd" clip-rule="evenodd" d="M67.957 0.0950012C67.4799 2.01908 66.4867 3.77646 65.0846 5.17776C63.6824 6.57905 61.9244 7.5711 60 8.047C61.9245 8.5227 63.6826 9.51469 65.0848 10.916C66.487 12.3173 67.4801 14.0748 67.957 15.999C68.4273 14.0726 69.42 12.3134 70.826 10.915C72.223 9.5106 73.98 8.51828 75.904 8.047C73.9801 7.57533 72.2233 6.58307 70.826 5.179C69.4202 3.78052 68.4274 2.02132 67.957 0.0950012Z" fill="#7A99CF"/>
</g>
<g clip-path="url(#clip2_27_74)">
<path fill-rule="evenodd" clip-rule="evenodd" d="M7.957 0.0950012C7.47989 2.01908 6.48673 3.77646 5.08456 5.17776C3.68239 6.57905 1.92438 7.5711 0 8.047C1.92447 8.5227 3.68259 9.51469 5.0848 10.916C6.487 12.3173 7.48009 14.0748 7.957 15.999C8.42725 14.0726 9.42003 12.3134 10.826 10.915C12.223 9.5106 13.98 8.51828 15.904 8.047C13.9801 7.57533 12.2233 6.58307 10.826 5.179C9.4202 3.78052 8.42745 2.02132 7.957 0.0950012Z" fill="#7A99CF"/>
</g>
<defs>
<clipPath id="clip0_27_74">
<rect width="16" height="16" fill="white" transform="translate(30)"/>
</clipPath>
<clipPath id="clip1_27_74">
<rect width="16" height="16" fill="white" transform="translate(60)"/>
</clipPath>
<clipPath id="clip2_27_74">
<rect width="16" height="16" fill="white"/>
</clipPath>
</defs>
</svg>
